<!DOCTYPE svg PUBLIC "-//W3C//DTD SVG 1.1//EN" "http://www.w3.org/Graphics/SVG/1.1/DTD/svg11.dtd">
<!-- Uploaded to: SVG Repo, www.svgrepo.com, Transformed by: SVG Repo Mixer Tools -->
<svg fill="#0A84FF" width="800px" height="800px" viewBox="0 0 20 20" xmlns="http://www.w3.org/2000/svg">
<g id="SVGRepo_bgCarrier" stroke-width="0"/>
<g id="SVGRepo_tracerCarrier" stroke-linecap="round" stroke-linejoin="round"/>
<g id="SVGRepo_iconCarrier">
<path d="M18.405 4.799c-.111-.44-.655-.799-1.21-.799h-6.814c-.554 0-1.33-.318-1.722-.707l-.596-.588C7.671 2.316 6.896 2 6.342 2H3.087c-.555 0-1.059.447-1.12.994L1.675 6h16.931l-.201-1.201zM19.412 7H.588a.58.58 0 0 0-.577.635l.923 9.669A.77.77 0 0 0 1.7 18h16.6a.77.77 0 0 0 .766-.696l.923-9.669A.58.58 0 0 0 19.412 7z"/>
</g>
</svg>