<!DOCTYPE svg PUBLIC "-//W3C//DTD SVG 1.1//EN" "http://www.w3.org/Graphics/SVG/1.1/DTD/svg11.dtd">
<!-- Uploaded to: SVG Repo, www.svgrepo.com, Transformed by: SVG Repo Mixer Tools -->
<svg fill="#0A84FF" width="800px" height="800px" viewBox="0 0 20 20" xmlns="http://www.w3.org/2000/svg">
<g id="SVGRepo_bgCarrier" stroke-width="0"/>
<g id="SVGRepo_tracerCarrier" stroke-linecap="round" stroke-linejoin="round"/>
<g id="SVGRepo_iconCarrier">
<path d="M19.754 15.631L18 13V4c0-1.102-.9-2-2-2H4c-1.101 0-2 .898-2 2v9L.246 15.631C0 16 0 16.213 0 16.5v.5c0 .5.5 1 .999 1h18.002c.499 0 .999-.5.999-1v-.5c0-.287 0-.5-.246-.869zM7 16l.6-1h4.8l.6 1H7zm9-4H4V4h12v8z"/>
</g>
</svg>